<svg width="64" height="64" viewBox="0 0 64 64" xmlns="http://www.w3.org/2000/svg">
  <defs>
    <!-- Simplified gradients optimized for small sizes -->
    <linearGradient id="blueGrad" x1="0%" y1="0%" x2="100%" y2="100%">
      <stop offset="0%" style="stop-color:#0099FF;stop-opacity:1" />
      <stop offset="100%" style="stop-color:#004EFF;stop-opacity:1" />
    </linearGradient>
    
    <linearGradient id="pinkGrad" x1="0%" y1="0%" x2="100%" y2="100%">
      <stop offset="0%" style="stop-color:#FF69B4;stop-opacity:1" />
      <stop offset="100%" style="stop-color:#E0007A;stop-opacity:1" />
    </linearGradient>
    
    <linearGradient id="yellowGrad" x1="0%" y1="0%" x2="100%" y2="100%">
      <stop offset="0%" style="stop-color:#FFD700;stop-opacity:1" />
      <stop offset="100%" style="stop-color:#FF8C00;stop-opacity:1" />
    </linearGradient>
  </defs>
  
  <!-- Background -->
  <rect width="64" height="64" fill="#111111" rx="8"/>
  
  <!-- Simplified W - Blue -->
  <path d="M 4 12 L 8 36 L 12 24 L 16 36 L 20 12 L 16 12 L 14 28 L 12 20 L 10 28 L 8 12 Z" 
        fill="url(#blueGrad)" 
        stroke="#000" 
        stroke-width="0.5"/>
  
  <!-- Simplified M - Pink -->  
  <path d="M 22 12 L 22 36 L 26 36 L 26 18 L 32 26 L 38 18 L 38 36 L 42 36 L 42 12 L 36 12 L 32 20 L 28 12 Z" 
        fill="url(#pinkGrad)" 
        stroke="#000" 
        stroke-width="0.5"/>
  
  <!-- Simplified X - Yellow -->
  <path d="M 44 12 L 54 22 L 60 12 L 60 16 L 56 20 L 60 36 L 56 36 L 54 24 L 52 36 L 48 36 L 52 20 L 48 16 L 48 12 Z" 
        fill="url(#yellowGrad)" 
        stroke="#000" 
        stroke-width="0.5"/>
  
  <!-- Bottom accent -->
  <rect x="8" y="44" width="48" height="2" fill="#FFC700" opacity="0.8" rx="1"/>
  
  <!-- Corner accents -->
  <circle cx="8" cy="8" r="2" fill="#00FFFF" opacity="0.6"/>
  <circle cx="56" cy="8" r="2" fill="#FFC700" opacity="0.6"/>
  <circle cx="8" cy="56" r="2" fill="#FF3EA5" opacity="0.6"/>
  <circle cx="56" cy="56" r="2" fill="#00FFFF" opacity="0.6"/>
</svg>
