<svg width="48" height="48" viewBox="0 0 48 48" xmlns="http://www.w3.org/2000/svg">
  <defs>
    <linearGradient id="blueGrad48" x1="0%" y1="0%" x2="100%" y2="100%">
      <stop offset="0%" style="stop-color:#0099FF;stop-opacity:1" />
      <stop offset="100%" style="stop-color:#004EFF;stop-opacity:1" />
    </linearGradient>
    
    <linearGradient id="pinkGrad48" x1="0%" y1="0%" x2="100%" y2="100%">
      <stop offset="0%" style="stop-color:#FF69B4;stop-opacity:1" />
      <stop offset="100%" style="stop-color:#E0007A;stop-opacity:1" />
    </linearGradient>
    
    <linearGradient id="yellowGrad48" x1="0%" y1="0%" x2="100%" y2="100%">
      <stop offset="0%" style="stop-color:#FFD700;stop-opacity:1" />
      <stop offset="100%" style="stop-color:#FF8C00;stop-opacity:1" />
    </linearGradient>
  </defs>
  
  <!-- Background with rounded corners -->
  <rect width="48" height="48" fill="#111111" rx="6"/>
  
  <!-- W - Blue, larger and bolder -->
  <path d="M 3 8 L 6 28 L 9 18 L 12 28 L 15 8 L 12 8 L 10.5 22 L 9 16 L 7.5 22 L 6 8 Z" 
        fill="url(#blueGrad48)" 
        stroke="#000" 
        stroke-width="0.5"/>
  
  <!-- M - Pink, larger and bolder -->  
  <path d="M 17 8 L 17 28 L 20 28 L 20 14 L 24 20 L 28 14 L 28 28 L 31 28 L 31 8 L 27 8 L 24 15 L 21 8 Z" 
        fill="url(#pinkGrad48)" 
        stroke="#000" 
        stroke-width="0.5"/>
  
  <!-- X - Yellow, larger and bolder -->
  <path d="M 33 8 L 40 16 L 45 8 L 45 11 L 42 15 L 45 28 L 42 28 L 40 18 L 38 28 L 35 28 L 38 15 L 35 11 L 35 8 Z" 
        fill="url(#yellowGrad48)" 
        stroke="#000" 
        stroke-width="0.5"/>
  
  <!-- Bottom accent line -->
  <rect x="6" y="34" width="36" height="2" fill="#FFC700" opacity="0.9" rx="1"/>
  
  <!-- Corner effects -->
  <circle cx="6" cy="6" r="1.5" fill="#00FFFF" opacity="0.7"/>
  <circle cx="42" cy="6" r="1.5" fill="#FFC700" opacity="0.7"/>
  <circle cx="6" cy="42" r="1.5" fill="#FF3EA5" opacity="0.7"/>
  <circle cx="42" cy="42" r="1.5" fill="#00FFFF" opacity="0.7"/>
</svg>
